<svg width="484" height="127" viewBox="0 0 484 127" fill="none" xmlns="http://www.w3.org/2000/svg">
<g clip-path="url(#clip0_32642_1057)">
<path d="M230.43 101.62L213.3 88.8104C206.13 83.4504 204.66 73.3004 209.99 66.1804L248.84 14.2404C254.18 7.10035 264.33 5.67035 271.48 11.0204L288.61 23.8304L230.43 101.62Z" fill="white"/>
<path fill-rule="evenodd" clip-rule="evenodd" d="M216.32 26.68C205.89 18.88 200.87 8.51 198.55 1.68C193.99 3.05 190.12 5.37 187.51 8.86C181.8 16.48 183.18 28.31 187.45 39.32C191.72 50.27 198.9 60.47 204.75 64.85L246.1 9.57C240.24 5.19 228.42 1.19 216.67 0.22C215.35 0.11 214.03 0.04 212.71 0C212.57 10.78 216.31 26.67 216.31 26.67L216.32 26.68ZM203.58 29.97L204.34 36.53L210.89 35.77C211.71 35.67 212.44 36.25 212.56 37.05V37.09C212.66 37.91 212.07 38.67 211.24 38.77L204.68 39.52L205.44 46.08C205.53 46.9 204.96 47.63 204.15 47.75H204.11C203.28 47.84 202.53 47.26 202.44 46.43L201.68 39.87L195.12 40.62C194.32 40.72 193.58 40.16 193.46 39.35V39.29C193.35 38.47 193.94 37.71 194.78 37.62L201.34 36.86L200.58 30.3C200.48 29.5 201.05 28.76 201.86 28.64H201.91C202.73 28.53 203.49 29.12 203.59 29.96L203.58 29.97Z" fill="#00D4C6"/>
<path fill-rule="evenodd" clip-rule="evenodd" d="M336.85 81.3414L322.73 126.631C313.13 123.641 294.84 106.811 298.73 94.3214C302.63 81.8214 327.24 78.3714 336.84 81.3714V81.3514L336.85 81.3414Z" fill="#00D4C6"/>
<path fill-rule="evenodd" clip-rule="evenodd" d="M298.39 39.5302L318.86 51.6702L276.38 123.28L255.91 111.14C249.35 107.25 243.32 95.6502 247.91 87.9202L278.23 46.4702C282.82 38.7402 291.84 35.6202 298.4 39.5102V39.5302H298.39Z" fill="white"/>
<path d="M309.69 26.8125C338.68 26.8125 338.68 10.8125 367.68 10.8125C396.68 10.8125 396.68 26.8125 425.67 26.8125C454.66 26.8125 454.67 10.8125 483.66 10.8125" stroke="#00D4C6" stroke-width="4" stroke-miterlimit="10"/>
<path d="M19.7598 10.8125C48.7498 10.8125 48.7498 26.8125 77.7398 26.8125C106.73 26.8125 106.73 10.8125 135.73 10.8125C146.6 10.8125 153.4 13.0625 159.17 15.8725" stroke="#00D4C6" stroke-width="4" stroke-miterlimit="10"/>
<path d="M347.92 56.8516C376.92 56.8516 376.92 72.8516 405.91 72.8516C434.9 72.8516 434.91 56.8516 463.9 56.8516" stroke="#00D4C6" stroke-width="4" stroke-miterlimit="10"/>
<path d="M0 56.8516C28.99 56.8516 28.99 72.8516 57.98 72.8516C86.97 72.8516 86.97 56.8516 115.97 56.8516C144.97 56.8516 144.96 72.8516 173.96 72.8516C177.58 72.8516 180.76 72.6016 183.59 72.1616" stroke="#00D4C6" stroke-width="4" stroke-miterlimit="10"/>
</g>
<defs>
<clipPath id="clip0_32642_1057">
<rect width="483.67" height="126.62" fill="white" transform="translate(0 0.0117188)"/>
</clipPath>
</defs>
</svg>
