<svg width="363" height="242" viewBox="0 0 363 242" fill="none" xmlns="http://www.w3.org/2000/svg">
<g clip-path="url(#clip0_32642_1073)">
<path d="M188.189 61.5664L204.73 64.3458C211.639 65.5047 216.321 72.0394 215.163 78.9487L206.749 129.17C205.592 136.062 199.048 140.723 192.122 139.556L175.58 136.777L188.189 61.5664Z" fill="white"/>
<path fill-rule="evenodd" clip-rule="evenodd" d="M129.453 65.3729C136.345 69.1979 147.718 85.0467 142.741 94.0298C137.763 103.013 118.315 101.749 111.424 97.9244L129.462 65.3555V65.3729H129.453Z" fill="#00D4C6"/>
<path fill-rule="evenodd" clip-rule="evenodd" d="M173.996 64.503C179.748 66.1149 182.872 72.9372 180.966 79.7333L173.883 119.421C171.986 126.217 162.136 129.083 156.385 127.463L138.416 122.427L156.019 59.4844L173.988 64.5205V64.503H173.996Z" fill="white"/>
<path fill-rule="evenodd" clip-rule="evenodd" d="M240.842 89.1083C233.715 82.8001 224.779 78.1213 218.949 77.1367L209.682 132.237C215.52 133.222 225.484 131.732 234.29 128.073C236.648 127.105 238.919 125.973 241.016 124.701C237.727 121.172 231.853 119.116 227.233 117.974C226.093 117.695 226.215 115.204 227.372 115.169C236.108 114.881 243.269 120.675 244.827 122.035C248.621 118.985 251.344 115.299 252.058 111.056C253.337 103.45 247.977 95.4513 240.842 89.1083ZM227.285 104.835C225.249 104.835 223.604 100.705 223.604 95.6169C223.604 90.5285 225.249 86.3899 227.285 86.3899C229.321 86.3899 230.966 90.5198 230.966 95.6169C230.966 100.714 229.321 104.835 227.285 104.835Z" fill="#00D4C6"/>
<path d="M97.8656 61.9531C97.8656 84.0927 89.1641 84.0927 89.1641 106.224C89.1641 128.354 97.8656 128.354 97.8656 150.494C97.8656 172.634 89.1641 172.634 89.1641 194.773C89.1641 216.913 97.8656 216.913 97.8656 239.052" stroke="#00D4C6" stroke-width="4" stroke-miterlimit="10"/>
<path d="M275.385 61.9531C275.385 84.0927 264.943 84.0927 264.943 106.224C264.943 128.354 275.385 128.354 275.385 150.494C275.385 172.634 264.943 172.634 264.943 194.773C264.943 216.913 275.385 216.913 275.385 239.052" stroke="#00D4C6" stroke-width="4" stroke-miterlimit="10"/>
<path d="M140.285 146.004C140.285 157.88 135.064 157.88 135.064 169.755C135.064 181.631 140.285 181.631 140.285 193.507C140.285 205.383 135.064 205.383 135.064 217.258C135.064 229.134 140.285 229.134 140.285 241.01" stroke="#00D4C6" stroke-width="4" stroke-miterlimit="10"/>
<path d="M51.9572 146.004C51.9572 157.88 46.7363 157.88 46.7363 169.755C46.7363 181.631 51.9572 181.631 51.9572 193.507C51.9572 205.383 46.7363 205.383 46.7363 217.258C46.7363 229.134 51.9572 229.134 51.9572 241.01" stroke="#00D4C6" stroke-width="4" stroke-miterlimit="10"/>
<path d="M316.936 146.004C316.936 157.88 311.715 157.88 311.715 169.755C311.715 181.631 316.936 181.631 316.936 193.507C316.936 205.383 311.715 205.383 311.715 217.258C311.715 229.134 316.936 229.134 316.936 241.01" stroke="#00D4C6" stroke-width="4" stroke-miterlimit="10"/>
<path d="M184.446 172.613C184.446 184.01 179.225 184.01 179.225 195.406C179.225 206.803 184.446 206.803 184.446 218.208C184.446 229.613 179.225 229.605 179.225 241.01" stroke="#00D4C6" stroke-width="4" stroke-miterlimit="10"/>
<path d="M229.477 156.625C229.477 170.688 222.516 170.688 222.516 184.75C222.516 198.813 229.477 198.813 229.477 212.876C229.477 226.938 222.516 226.938 222.516 241.001" stroke="#00D4C6" stroke-width="4" stroke-miterlimit="10"/>
<path d="M361.096 193.508C361.096 205.384 355.875 205.384 355.875 217.259C355.875 229.135 361.096 229.135 361.096 241.011" stroke="#00D4C6" stroke-width="4" stroke-miterlimit="10"/>
<path d="M7.79707 193.508C7.79707 205.384 2.57617 205.384 2.57617 217.259C2.57617 229.135 7.79707 229.135 7.79707 241.011" stroke="#00D4C6" stroke-width="4" stroke-miterlimit="10"/>
<path d="M227.283 24.7583C233.987 24.7583 239.422 19.3166 239.422 12.6038C239.422 5.891 233.987 0.449219 227.283 0.449219C220.579 0.449219 215.145 5.891 215.145 12.6038C215.145 19.3166 220.579 24.7583 227.283 24.7583Z" stroke="#00D4C6" stroke-width="2" stroke-miterlimit="10"/>
<path d="M230.372 6.56392C229.72 6.07599 228.702 5.83203 227.335 5.83203C225.969 5.83203 224.856 6.13698 224.177 6.7556C223.489 7.37422 223.167 8.31522 223.211 9.56117C223.211 9.63959 223.228 9.70929 223.254 9.77028C223.289 9.83127 223.359 9.85741 223.446 9.85741H225.238C225.386 9.85741 225.465 9.77028 225.465 9.60474C225.447 9.01226 225.578 8.5679 225.839 8.25423C226.109 7.94056 226.587 7.78373 227.275 7.78373C227.849 7.78373 228.275 7.88829 228.562 8.08868C228.849 8.28037 228.989 8.58532 228.989 8.98612C228.989 9.38691 228.876 9.718 228.649 10.0317C228.423 10.3453 228.145 10.6416 227.805 10.9204C227.466 11.1992 227.127 11.478 226.796 11.7568C226.465 12.0356 226.178 12.3493 225.952 12.6804C225.717 13.0202 225.604 13.4123 225.604 13.8479V14.6321C225.604 14.7802 225.673 14.8499 225.821 14.8499H227.692C227.849 14.8499 227.936 14.7802 227.936 14.6321V14.0135C227.945 13.7347 228.066 13.4646 228.301 13.2119C228.536 12.9592 228.823 12.6978 229.154 12.419C229.493 12.1315 229.833 11.8265 230.163 11.4867C230.494 11.1469 230.781 10.7548 231.007 10.3018C231.242 9.8487 231.356 9.31721 231.356 8.7073C231.356 7.77502 231.034 7.06056 230.372 6.56392ZM227.953 16.7145C227.71 16.4792 227.344 16.366 226.857 16.366C226.37 16.366 225.995 16.4792 225.752 16.7145C225.508 16.9497 225.378 17.2808 225.378 17.7252V18.0389C225.378 18.4658 225.508 18.7969 225.752 19.0321C225.995 19.2587 226.361 19.3807 226.857 19.3807C227.353 19.3807 227.71 19.2587 227.953 19.0321C228.188 18.7969 228.31 18.4658 228.31 18.0389V17.7252C228.31 17.2808 228.188 16.9497 227.953 16.7145Z" fill="#00D4C6"/>
<path d="M234.133 63.5737C238.155 63.5737 241.416 60.3087 241.416 56.281C241.416 52.2534 238.155 48.9883 234.133 48.9883C230.11 48.9883 226.85 52.2534 226.85 56.281C226.85 60.3087 230.11 63.5737 234.133 63.5737Z" stroke="#00D4C6" stroke-width="2" stroke-miterlimit="10"/>
<path d="M235.984 52.6631C235.584 52.3669 234.975 52.2188 234.157 52.2188C233.339 52.2188 232.678 52.4017 232.26 52.7764C231.851 53.1423 231.66 53.7087 231.686 54.458C231.686 54.5015 231.695 54.5451 231.712 54.58C231.729 54.6148 231.773 54.641 231.825 54.641H232.904C232.991 54.641 233.035 54.5887 233.035 54.4841C233.026 54.1269 233.104 53.8568 233.261 53.6738C233.418 53.4821 233.705 53.395 234.122 53.395C234.462 53.395 234.723 53.456 234.897 53.5693C235.062 53.6912 235.149 53.8742 235.149 54.1095C235.149 54.3447 235.08 54.5538 234.949 54.7368C234.81 54.9285 234.644 55.1027 234.436 55.2683C234.235 55.4425 234.035 55.6081 233.835 55.7736C233.635 55.9392 233.47 56.1309 233.331 56.3313C233.191 56.5317 233.122 56.7669 233.122 57.0283V57.4988C233.122 57.5859 233.165 57.6295 233.252 57.6295H234.375C234.47 57.6295 234.514 57.5859 234.514 57.4988V57.1241C234.523 56.9586 234.601 56.8018 234.74 56.6449C234.879 56.4968 235.053 56.34 235.254 56.1657C235.454 56.0002 235.654 55.8172 235.854 55.6081C236.054 55.4077 236.228 55.1724 236.367 54.9023C236.507 54.6322 236.576 54.3099 236.576 53.9439C236.576 53.3863 236.376 52.9594 235.984 52.6631ZM234.531 58.7447C234.383 58.6053 234.166 58.5356 233.87 58.5356C233.574 58.5356 233.357 58.6053 233.209 58.7447C233.061 58.8842 232.991 59.0933 232.991 59.3547V59.5463C232.991 59.799 233.061 59.9994 233.209 60.1388C233.357 60.2782 233.574 60.3479 233.87 60.3479C234.166 60.3479 234.383 60.2782 234.531 60.1388C234.671 59.9994 234.74 59.799 234.74 59.5463V59.3547C234.74 59.0933 234.671 58.8842 234.531 58.7447Z" fill="#00D4C6"/>
<path d="M248.515 84.4326C250.952 84.4326 252.927 82.4548 252.927 80.0151C252.927 77.5754 250.952 75.5977 248.515 75.5977C246.079 75.5977 244.104 77.5754 244.104 80.0151C244.104 82.4548 246.079 84.4326 248.515 84.4326Z" stroke="#00D4C6" stroke-width="2" stroke-miterlimit="10"/>
<path d="M249.629 77.82C249.394 77.6457 249.02 77.5586 248.524 77.5586C248.028 77.5586 247.627 77.6631 247.375 77.8897C247.131 78.1162 247.01 78.456 247.027 78.9091C247.027 78.944 247.036 78.9614 247.044 78.9875C247.062 79.0049 247.079 79.0224 247.114 79.0224H247.767C247.819 79.0224 247.845 78.9875 247.845 78.9265C247.845 78.7087 247.888 78.5519 247.984 78.4386C248.08 78.3253 248.254 78.2643 248.506 78.2643C248.715 78.2643 248.872 78.2992 248.976 78.3776C249.072 78.4473 249.124 78.5519 249.124 78.7C249.124 78.8394 249.089 78.9701 249.002 79.0834C248.924 79.1966 248.82 79.3012 248.698 79.4057C248.576 79.5103 248.454 79.6061 248.332 79.7107C248.21 79.8065 248.106 79.9198 248.028 80.0505C247.941 80.1725 247.897 80.3119 247.897 80.4687V80.7562C247.897 80.8085 247.923 80.8347 247.975 80.8347H248.654C248.715 80.8347 248.741 80.8085 248.741 80.7562V80.5297C248.75 80.4252 248.793 80.3293 248.88 80.2422C248.959 80.1463 249.063 80.0505 249.194 79.9459C249.316 79.8501 249.437 79.7368 249.559 79.6148C249.672 79.4842 249.777 79.3447 249.864 79.1792C249.951 79.0137 249.986 78.822 249.986 78.5954C249.986 78.2643 249.872 78.003 249.629 77.82ZM248.75 81.5143C248.663 81.4271 248.532 81.3836 248.35 81.3836C248.167 81.3836 248.036 81.4271 247.949 81.5143C247.862 81.5927 247.819 81.7147 247.819 81.8802V81.9935C247.819 82.1503 247.862 82.2636 247.949 82.3507C248.036 82.4378 248.176 82.4814 248.35 82.4814C248.532 82.4814 248.663 82.4378 248.75 82.3507C248.837 82.2636 248.88 82.1503 248.88 81.9935V81.8802C248.88 81.7147 248.837 81.5927 248.75 81.5143Z" fill="#00D4C6"/>
<path d="M116.948 193.508C120.879 193.508 124.066 190.317 124.066 186.381C124.066 182.445 120.879 179.254 116.948 179.254C113.017 179.254 109.83 182.445 109.83 186.381C109.83 190.317 113.017 193.508 116.948 193.508Z" fill="#00D4C6"/>
<path d="M169.348 181.571C173.279 181.571 176.466 178.38 176.466 174.444C176.466 170.507 173.279 167.316 169.348 167.316C165.417 167.316 162.23 170.507 162.23 174.444C162.23 178.38 165.417 181.571 169.348 181.571Z" fill="#00D4C6"/>
<path d="M347.878 186.383C351.809 186.383 354.995 183.192 354.995 179.256C354.995 175.32 351.809 172.129 347.878 172.129C343.947 172.129 340.76 175.32 340.76 179.256C340.76 183.192 343.947 186.383 347.878 186.383Z" fill="#00D4C6"/>
<path d="M239.423 193.508C243.354 193.508 246.54 190.317 246.54 186.381C246.54 182.445 243.354 179.254 239.423 179.254C235.491 179.254 232.305 182.445 232.305 186.381C232.305 190.317 235.491 193.508 239.423 193.508Z" fill="#00D4C6"/>
<path d="M30.821 213.942C34.752 213.942 37.9388 210.751 37.9388 206.815C37.9388 202.878 34.752 199.688 30.821 199.688C26.8899 199.688 23.7031 202.878 23.7031 206.815C23.7031 210.751 26.8899 213.942 30.821 213.942Z" fill="#00D4C6"/>
<path d="M77.9928 170.879C81.9239 170.879 85.1107 167.688 85.1107 163.752C85.1107 159.816 81.9239 156.625 77.9928 156.625C74.0618 156.625 70.875 159.816 70.875 163.752C70.875 167.688 74.0618 170.879 77.9928 170.879Z" fill="#00D4C6"/>
<path d="M197.116 203.502C199.081 203.502 200.674 201.907 200.674 199.939C200.674 197.97 199.081 196.375 197.116 196.375C195.15 196.375 193.557 197.97 193.557 199.939C193.557 201.907 195.15 203.502 197.116 203.502Z" fill="#00D4C6"/>
<path d="M340.76 149.569C342.726 149.569 344.319 147.973 344.319 146.005C344.319 144.037 342.726 142.441 340.76 142.441C338.795 142.441 337.201 144.037 337.201 146.005C337.201 147.973 338.795 149.569 340.76 149.569Z" fill="#00D4C6"/>
<path d="M67.3148 136.1C69.2803 136.1 70.8737 134.504 70.8737 132.536C70.8737 130.568 69.2803 128.973 67.3148 128.973C65.3492 128.973 63.7559 130.568 63.7559 132.536C63.7559 134.504 65.3492 136.1 67.3148 136.1Z" fill="#00D4C6"/>
<path d="M106.272 217.26C108.237 217.26 109.831 215.665 109.831 213.696C109.831 211.728 108.237 210.133 106.272 210.133C104.306 210.133 102.713 211.728 102.713 213.696C102.713 215.665 104.306 217.26 106.272 217.26Z" fill="#00D4C6"/>
<path d="M154.051 220.822C156.017 220.822 157.61 219.227 157.61 217.259C157.61 215.291 156.017 213.695 154.051 213.695C152.086 213.695 150.492 215.291 150.492 217.259C150.492 219.227 152.086 220.822 154.051 220.822Z" fill="#00D4C6"/>
<path d="M248.881 167.319C250.847 167.319 252.44 165.723 252.44 163.755C252.44 161.787 250.847 160.191 248.881 160.191C246.916 160.191 245.322 161.787 245.322 163.755C245.322 165.723 246.916 167.319 248.881 167.319Z" fill="#00D4C6"/>
<path d="M296.287 197.072C298.253 197.072 299.846 195.477 299.846 193.509C299.846 191.541 298.253 189.945 296.287 189.945C294.322 189.945 292.729 191.541 292.729 193.509C292.729 195.477 294.322 197.072 296.287 197.072Z" fill="#00D4C6"/>
<path d="M258.149 48.9876C263.474 48.9876 267.79 44.6654 267.79 39.3336C267.79 34.0019 263.474 29.6797 258.149 29.6797C252.824 29.6797 248.508 34.0019 248.508 39.3336C248.508 44.6654 252.824 48.9876 258.149 48.9876Z" stroke="#00D4C6" stroke-width="2" stroke-miterlimit="10"/>
<path d="M260.603 34.5408C260.081 34.1574 259.28 33.957 258.192 33.957C257.105 33.957 256.226 34.201 255.686 34.6976C255.138 35.1856 254.886 35.9262 254.912 36.9194C254.912 36.9891 254.929 37.0414 254.956 37.085C254.982 37.1373 255.034 37.1547 255.103 37.1547H256.53C256.644 37.1547 256.704 37.0937 256.704 36.9543C256.696 36.4925 256.792 36.1353 257 35.8826C257.218 35.6386 257.592 35.5079 258.14 35.5079C258.601 35.5079 258.941 35.5864 259.167 35.7519C259.393 35.9087 259.506 36.144 259.506 36.4576C259.506 36.7713 259.411 37.0414 259.237 37.2941C259.054 37.5381 258.836 37.7733 258.567 37.9998C258.297 38.2177 258.027 38.4442 257.766 38.662C257.496 38.8886 257.279 39.1325 257.087 39.4026C256.905 39.6727 256.818 39.9777 256.818 40.3262V40.9448C256.818 41.0668 256.87 41.1191 256.992 41.1191H258.48C258.601 41.1191 258.662 41.0668 258.662 40.9448V40.4569C258.68 40.2303 258.775 40.0212 258.958 39.8208C259.141 39.6204 259.367 39.4113 259.637 39.1848C259.907 38.967 260.176 38.723 260.437 38.4529C260.698 38.1828 260.925 37.8691 261.107 37.5119C261.299 37.146 261.386 36.7277 261.386 36.2398C261.386 35.4992 261.125 34.9329 260.603 34.5408ZM258.68 42.6003C258.488 42.4173 258.201 42.3215 257.81 42.3215C257.418 42.3215 257.131 42.4173 256.931 42.6003C256.739 42.792 256.644 43.0533 256.644 43.4019V43.6545C256.644 43.9943 256.739 44.2557 256.931 44.4387C257.131 44.6217 257.418 44.7175 257.81 44.7175C258.201 44.7175 258.488 44.6217 258.68 44.4387C258.871 44.2557 258.967 43.9943 258.967 43.6545V43.4019C258.967 43.0533 258.871 42.792 258.68 42.6003Z" fill="#00D4C6"/>
</g>
<defs>
<clipPath id="clip0_32642_1073">
<rect width="362" height="241" fill="white" transform="translate(0.835938 0.0117188)"/>
</clipPath>
</defs>
</svg>
